<?xml version="1.0" standalone="no"?>
<!DOCTYPE svg PUBLIC "-//W3C//DTD SVG 20010904//EN"
 "http://www.w3.org/TR/2001/REC-SVG-20010904/DTD/svg10.dtd">
<svg version="1.0" xmlns="http://www.w3.org/2000/svg"
 width="300.000000pt" height="168.000000pt" viewBox="0 0 300.000000 168.000000"
 preserveAspectRatio="xMidYMid meet">
<metadata>
Created by potrace 1.16, written by Peter Selinger 2001-2019
</metadata>
<g transform="translate(0.000000,168.000000) scale(0.100000,-0.100000)"
fill="#000000" stroke="none">
<path d="M2896 1618 c-3 -35 -12 -245 -21 -468 -9 -223 -19 -446 -22 -496 l-6
-92 -91 -7 c-50 -4 -96 -11 -102 -16 -8 -6 -13 -3 -17 10 -4 16 -12 19 -43 16
-22 -1 -28 0 -14 3 l25 5 -24 6 c-23 6 -24 10 -22 84 l2 77 -38 -4 c-79 -10
-174 -16 -368 -22 -110 -3 -213 -7 -230 -9 -16 -3 -175 -14 -353 -26 l-323
-21 -54 22 c-30 12 -59 19 -66 14 -8 -4 -9 -3 -5 4 4 7 1 12 -6 12 -7 0 -40
13 -72 30 -33 16 -73 32 -90 36 -17 4 -73 23 -126 44 -52 20 -116 45 -142 54
-45 17 -48 20 -48 53 0 28 5 36 23 41 17 5 10 8 -28 13 -48 6 -47 6 20 8 39 0
94 4 123 7 l52 7 0 84 0 84 -121 -2 c-66 -1 -122 1 -125 3 -2 3 50 7 116 10
66 3 123 8 126 11 3 3 3 44 -1 92 l-7 86 -122 -3 -121 -3 -3 -419 c-2 -321 -5
-422 -15 -428 -6 -4 -30 -8 -52 -8 -26 0 -35 -3 -26 -9 9 -6 10 -11 2 -15 -6
-4 -9 -12 -6 -17 4 -5 -1 -9 -10 -9 -9 0 -13 -5 -10 -10 4 -6 25 -8 53 -4 34
4 52 1 67 -10 15 -12 16 -15 5 -16 -13 0 -13 -1 0 -10 9 -6 17 -5 22 3 6 9 8
9 8 0 0 -7 7 -13 16 -13 8 0 34 -11 57 -24 23 -13 62 -31 87 -40 25 -10 113
-52 195 -96 315 -165 356 -184 376 -172 15 9 21 8 31 -7 13 -17 18 -17 158 0
215 26 439 63 410 68 -21 3 -17 6 20 15 27 7 65 8 93 4 52 -8 107 -1 107 13 0
5 6 7 13 5 37 -12 68 -16 63 -8 -3 5 5 7 18 5 21 -4 24 0 29 49 4 29 7 72 7
96 0 27 5 42 13 42 6 0 75 7 152 15 77 8 143 15 147 15 4 0 8 -10 10 -21 3
-22 67 -48 223 -93 28 -8 75 -24 105 -35 30 -12 56 -21 57 -21 2 0 3 52 3 115
0 112 0 115 -22 115 -13 1 -34 7 -47 14 l-23 13 23 6 c13 4 34 7 46 7 22 0 22
0 23 229 0 126 -4 232 -9 235 -10 7 -18 -76 -20 -234 -1 -63 -5 -118 -9 -122
-4 -4 -18 -5 -30 -1 -22 5 -22 8 -17 92 9 143 24 511 31 764 l7 237 -26 0
c-24 0 -26 -3 -31 -62z"/>
<path d="M840 1280 l0 -90 115 0 115 0 0 38 c0 20 -3 61 -6 90 l-7 52 -108 0
-109 0 0 -90z"/>
<path d="M1080 1280 l0 -90 53 0 c28 0 76 3 105 6 l52 7 0 83 0 84 -105 0
-105 0 0 -90z"/>
<path d="M1308 1285 l-3 -85 102 0 102 0 3 85 3 85 -102 0 -102 0 -3 -85z"/>
<path d="M1530 1284 l0 -85 100 3 100 3 0 83 0 82 -100 0 -100 0 0 -86z"/>
<path d="M1323 1182 c-22 -3 -23 -8 -23 -83 l0 -79 105 0 105 0 0 86 0 85 -82
-3 c-46 -1 -93 -4 -105 -6z"/>
<path d="M1523 1110 l-3 -80 105 0 105 0 0 80 0 80 -102 0 -103 0 -2 -80z"/>
<path d="M883 1173 l-43 -4 0 -85 0 -84 69 0 c37 0 89 3 114 6 l46 7 0 83 0
84 -72 -2 c-40 -1 -91 -3 -114 -5z"/>
<path d="M1080 1095 l0 -85 83 0 c130 0 127 -2 127 91 l0 79 -105 0 -105 0 0
-85z"/>
<path d="M150 369 c-168 -14 -150 10 -150 -195 l0 -176 160 4 c87 2 162 7 165
10 4 3 3 86 -2 185 l-8 178 -30 1 c-16 1 -77 -2 -135 -7z"/>
</g>
</svg>
